<svg version="1.1" id="Layer_1" xmlns="http://www.w3.org/2000/svg" xmlns:xlink="http://www.w3.org/1999/xlink" x="0px" y="0px"
	  viewBox="0 0 335 335" enable-background="new 0 0 335 335" xml:space="preserve" style="background-color: #0057D9">
<path fill="#0057D9" opacity="1.000000" stroke="none" 
	d="
M230.000000,336.000000 
	C153.333344,336.000000 77.166695,336.000000 1.000031,336.000000 
	C1.000021,224.333374 1.000021,112.666733 1.000010,1.000076 
	C112.666618,1.000050 224.333237,1.000050 335.999878,1.000025 
	C335.999939,112.666595 335.999939,224.333191 335.999969,335.999878 
	C300.833344,336.000000 265.666656,336.000000 230.000000,336.000000 
M170.281738,112.545174 
	C170.520538,112.760635 170.797714,112.899612 171.758728,113.169075 
	C194.595047,144.115707 217.431381,175.062347 240.559311,206.404129 
	C255.545364,185.720154 270.364471,165.266632 285.183594,144.813095 
	C285.764832,145.031036 286.346069,145.248978 286.927307,145.466919 
	C286.927307,188.474243 286.927307,231.481552 286.927307,274.238770 
	C302.447510,274.238770 317.108826,274.238770 331.398529,274.238770 
	C331.398529,205.188309 331.398529,136.668747 331.398529,67.894699 
	C317.210541,67.894699 303.561066,67.816299 289.915527,68.011742 
	C288.496460,68.032074 286.663849,69.362312 285.759949,70.616020 
	C273.136505,88.124893 260.648041,105.731049 248.108963,123.300850 
	C245.868820,126.439789 243.548615,129.521591 241.046494,132.927719 
	C239.615601,131.333511 238.646301,130.435028 237.889572,129.383560 
	C223.913925,109.964272 210.010254,90.492767 195.922150,71.155602 
	C194.759354,69.559570 192.456131,68.048119 190.555359,67.871880 
	C184.100311,67.273384 177.588303,67.112213 171.097610,67.103157 
	C117.610870,67.028465 64.124016,67.023552 10.637198,67.016335 
	C9.533723,67.016190 8.430218,67.242241 7.558787,67.337418 
	C7.558787,136.557068 7.558787,205.435989 7.558787,274.386963 
	C22.548426,274.386963 36.982822,274.386963 51.989826,274.386963 
	C51.989826,246.612305 51.989826,218.905869 51.989826,190.808548 
	C76.630608,190.808548 100.700928,190.808548 124.764923,190.808548 
	C124.764923,175.642426 124.764923,160.876083 124.764923,145.206635 
	C100.094650,145.206635 75.636345,145.206635 51.109985,145.206635 
	C51.109985,135.145676 51.068005,125.989639 51.151604,116.834747 
	C51.165424,115.321609 51.728840,113.813492 52.264969,112.534615 
	C52.264969,112.534615 52.703144,112.537201 52.703144,112.537201 
	C52.703144,112.537201 52.983875,112.156570 53.911160,111.996788 
	C92.612854,112.050514 131.314560,112.104240 170.281738,112.545174 
M149.811462,239.499878 
	C149.811462,251.127838 149.811462,262.755798 149.811462,274.599182 
	C164.475204,274.599182 179.051743,274.599182 193.989822,274.599182 
	C193.989822,272.614899 193.989822,270.803345 193.989822,268.991791 
	C193.989822,241.529160 193.891769,214.065796 194.093979,186.604645 
	C194.124832,182.414856 192.534760,179.537827 190.022217,176.555435 
	C183.002731,168.223251 176.166077,159.736588 169.288254,151.285675 
	C163.008698,143.569870 156.769684,135.821075 149.814148,127.223167 
	C149.814148,165.089325 149.814148,201.794601 149.811462,239.499878 
z"/>
<path fill="#FFF" opacity="1.000000" stroke="none" 
	d="
M52.038269,112.303055 
	C51.728840,113.813492 51.165424,115.321609 51.151604,116.834747 
	C51.068005,125.989639 51.109985,135.145676 51.109985,145.206635 
	C75.636345,145.206635 100.094650,145.206635 124.764923,145.206635 
	C124.764923,160.876083 124.764923,175.642426 124.764923,190.808548 
	C100.700928,190.808548 76.630608,190.808548 51.989826,190.808548 
	C51.989826,218.905869 51.989826,246.612305 51.989826,274.386963 
	C36.982822,274.386963 22.548426,274.386963 7.558787,274.386963 
	C7.558787,205.435989 7.558787,136.557068 7.558787,67.337418 
	C8.430218,67.242241 9.533723,67.016190 10.637198,67.016335 
	C64.124016,67.023552 117.610870,67.028465 171.097610,67.103157 
	C177.588303,67.112213 184.100311,67.273384 190.555359,67.871880 
	C192.456131,68.048119 194.759354,69.559570 195.922150,71.155602 
	C210.010254,90.492767 223.913925,109.964272 237.889572,129.383560 
	C238.646301,130.435028 239.615601,131.333511 241.046494,132.927719 
	C243.548615,129.521591 245.868820,126.439789 248.108963,123.300850 
	C260.648041,105.731049 273.136505,88.124893 285.759949,70.616020 
	C286.663849,69.362312 288.496460,68.032074 289.915527,68.011742 
	C303.561066,67.816299 317.210541,67.894699 331.398529,67.894699 
	C331.398529,136.668747 331.398529,205.188309 331.398529,274.238770 
	C317.108826,274.238770 302.447510,274.238770 286.927307,274.238770 
	C286.927307,231.481552 286.927307,188.474243 286.927307,145.466919 
	C286.346069,145.248978 285.764832,145.031036 285.183594,144.813095 
	C270.364471,165.266632 255.545364,185.720154 240.559311,206.404129 
	C217.431381,175.062347 194.595047,144.115707 171.352051,112.807632 
	C170.635666,112.350121 170.325958,112.254051 170.016251,112.157974 
	C131.314560,112.104240 92.612854,112.050514 53.196251,112.017349 
	C52.333649,112.126297 52.185959,112.214676 52.038269,112.303055 
z"/>
<path fill="#fff" opacity="1.000000" stroke="none" 
	d="
M149.812805,238.999878 
	C149.814148,201.794601 149.814148,165.089325 149.814148,127.223167 
	C156.769684,135.821075 163.008698,143.569870 169.288254,151.285675 
	C176.166077,159.736588 183.002731,168.223251 190.022217,176.555435 
	C192.534760,179.537827 194.124832,182.414856 194.093979,186.604645 
	C193.891769,214.065796 193.989822,241.529160 193.989822,268.991791 
	C193.989822,270.803345 193.989822,272.614899 193.989822,274.599182 
	C179.051743,274.599182 164.475204,274.599182 149.811462,274.599182 
	C149.811462,262.755798 149.811462,251.127838 149.812805,238.999878 
z"/>
<path fill="#fff" opacity="1.000000" stroke="none" 
	d="
M52.151619,112.418839 
	C52.185959,112.214676 52.333649,112.126297 52.732609,112.097244 
	C52.983875,112.156570 52.703144,112.537201 52.703144,112.537201 
	C52.703144,112.537201 52.264969,112.534615 52.151619,112.418839 
z"/>
<path fill="#fff" opacity="1.000000" stroke="none" 
	d="
M170.148987,112.351578 
	C170.325958,112.254051 170.635666,112.350121 171.029297,112.704147 
	C170.797714,112.899612 170.520538,112.760635 170.148987,112.351578 
z"/>
</svg>